<svg id="Layer_1_1_" enable-background="new 0 0 64 64" height="512" viewBox="0 0 64 64" width="512" xmlns="http://www.w3.org/2000/svg"><path d="m39 9h-14l-2-6h18z" fill="#e6dfd7"/><path d="m39 9h-14c-1.105 0-2 .895-2 2 0 1.105.895 2 2 2h14c1.105 0 2-.895 2-2 0-1.105-.895-2-2-2z" fill="#ffb554"/><path d="m39 13h-14c-1.105 0-2 .895-2 2 0 1.105.895 2 2 2h14c1.105 0 2-.895 2-2 0-1.105-.895-2-2-2z" fill="#f5a947"/><path d="m39 17h-14c-1.105 0-2 .895-2 2 0 1.105.895 2 2 2h14c1.105 0 2-.895 2-2 0-1.105-.895-2-2-2z" fill="#ffb554"/><path d="m39 21h-14c-1.105 0-2 .895-2 2 0 1.105.895 2 2 2h14c1.105 0 2-.895 2-2 0-1.105-.895-2-2-2z" fill="#f5a947"/><path d="m37 61h-10c-13.255 0-24-10.745-24-24 0-6.627 5.373-12 12-12h34c6.627 0 12 5.373 12 12 0 13.255-10.745 24-24 24z" fill="#e6dfd7"/><path d="m16.303 58.484c3.222 1.607 6.852 2.516 10.697 2.516h10c13.255 0 24-10.745 24-24 0-2.181-.591-4.22-1.608-5.982-3.412 13.958-20.848 25.017-43.089 27.466z" fill="#ded8d0"/><path d="m30.978 41h2v16h-2z" fill="#7caa50" transform="matrix(1 -.003 .003 1 -.137 .09)"/><path d="m35.955 38c0 3.314-4 6-4 6s-4-2.686-4-6 4-8 4-8 4 4.686 4 8z" fill="#93c666"/><path d="m36 53h-4c0-4.418 3.582-8 8-8h4c0 4.418-3.582 8-8 8z" fill="#93c666"/><path d="m28 53h4c0-4.418-3.582-8-8-8h-4c0 4.418 3.582 8 8 8z" fill="#93c666"/><path d="m25 30c-.513-.205-.762-.787-.557-1.3l1.257-3.143c.205-.513.787-.762 1.3-.557.513.205.762.787.557 1.3l-1.257 3.143c-.205.513-.787.762-1.3.557z" fill="#d4cec7"/><path d="m37.7 29.443-1.257-3.143c-.205-.513.044-1.095.557-1.3.513-.205 1.095.044 1.3.557l1.257 3.143c.205.513-.044 1.095-.557 1.3-.513.205-1.095-.044-1.3-.557z" fill="#d4cec7"/><g fill="#ea5b58"><path d="m11.5 21h-2c0-1.052.386-1.631.668-2.054.221-.331.332-.497.332-.943 0-.447-.111-.613-.332-.944-.282-.423-.668-1.001-.668-2.054s.386-1.633.668-2.056c.221-.333.332-.499.332-.947s-.111-.615-.332-.947c-.282-.422-.668-1.002-.668-2.055h2c0 .448.111.615.332.947.282.423.668 1.002.668 2.055s-.386 1.633-.668 2.056c-.221.333-.332.499-.332.947 0 .446.111.612.332.943.282.423.668 1.001.668 2.054 0 1.052-.386 1.631-.668 2.054-.221.332-.332.498-.332.944z"/><path d="m17.5 21h-2c0-1.052.386-1.631.668-2.054.221-.331.332-.497.332-.943 0-.447-.111-.613-.332-.944-.282-.423-.668-1.001-.668-2.054s.386-1.633.668-2.056c.221-.333.332-.499.332-.947s-.111-.615-.332-.947c-.282-.422-.668-1.002-.668-2.055h2c0 .448.111.615.332.947.282.423.668 1.002.668 2.055s-.386 1.633-.668 2.056c-.221.333-.332.499-.332.947 0 .446.111.612.332.943.282.423.668 1.001.668 2.054 0 1.052-.386 1.631-.668 2.054-.221.332-.332.498-.332.944z"/><path d="m47.5 21h-2c0-1.052.386-1.631.668-2.054.221-.331.332-.497.332-.943 0-.447-.111-.613-.332-.944-.282-.423-.668-1.001-.668-2.054s.386-1.633.668-2.056c.221-.333.332-.499.332-.947s-.111-.615-.332-.947c-.282-.422-.668-1.002-.668-2.055h2c0 .448.111.615.332.947.282.423.668 1.002.668 2.055s-.386 1.633-.668 2.056c-.221.333-.332.499-.332.947 0 .446.111.612.332.943.282.423.668 1.001.668 2.054 0 1.052-.386 1.631-.668 2.054-.221.332-.332.498-.332.944z"/><path d="m53.5 21h-2c0-1.052.386-1.631.668-2.054.221-.331.332-.497.332-.943 0-.447-.111-.613-.332-.944-.282-.423-.668-1.001-.668-2.054s.386-1.633.668-2.056c.221-.333.332-.499.332-.947s-.111-.615-.332-.947c-.282-.422-.668-1.002-.668-2.055h2c0 .448.111.615.332.947.282.423.668 1.002.668 2.055s-.386 1.633-.668 2.056c-.221.333-.332.499-.332.947 0 .446.111.612.332.943.282.423.668 1.001.668 2.054 0 1.052-.386 1.631-.668 2.054-.221.332-.332.498-.332.944z"/></g></svg>